<svg width="56" height="56" viewBox="0 0 56 56" fill="none" xmlns="http://www.w3.org/2000/svg">
    <path d="M50.7674 8.80249L40.6769 3.94449C40.1071 3.66974 39.4659 3.57907 38.8422 3.68506C38.2185 3.79104 37.6433 4.08843 37.1962 4.53599L4.16493 34.65C3.76416 35.0136 3.52427 35.5216 3.49801 36.0621C3.47176 36.6026 3.66129 37.1315 4.02493 37.5322C4.06868 37.5795 4.11243 37.625 4.15968 37.667L6.85643 40.117C7.20881 40.4377 7.6624 40.6249 8.13842 40.646C8.61443 40.6671 9.0828 40.5208 9.46218 40.2325L49.2484 10.0625C49.5489 9.83445 49.9071 9.69482 50.2827 9.65932C50.6583 9.62382 51.0363 9.69386 51.3742 9.86155C51.7122 10.0292 51.9966 10.2879 52.1954 10.6085C52.3943 10.929 52.4998 11.2988 52.4999 11.676V11.5587C52.4999 10.9828 52.3373 10.4186 52.0308 9.93101C51.7243 9.44341 51.2864 9.05224 50.7674 8.80249Z" fill="#0065A9"/>
    <path d="M50.7674 47.1975L40.6769 52.0573C40.1069 52.3312 39.4659 52.4215 38.8424 52.3155C38.2189 52.2096 37.6437 51.9127 37.1962 51.4658L4.16493 21.35C3.76416 20.9864 3.52427 20.4784 3.49801 19.9379C3.47176 19.3974 3.66129 18.8685 4.02493 18.4678C4.06868 18.4205 4.11243 18.375 4.15968 18.333L6.85643 15.883C7.20917 15.5609 7.6638 15.373 8.14099 15.3518C8.61817 15.3307 9.08762 15.4778 9.46743 15.7675L49.2484 45.9375C49.5489 46.1655 49.9071 46.3052 50.2827 46.3407C50.6583 46.3762 51.0363 46.3061 51.3742 46.1385C51.7122 45.9708 51.9966 45.7121 52.1954 45.3915C52.3943 45.071 52.4998 44.7013 52.4999 44.324V44.45C52.498 45.0244 52.3346 45.5867 52.0282 46.0725C51.7218 46.5584 51.2849 46.9482 50.7674 47.1975Z" fill="#007ACC"/>
    <path d="M40.677 52.0573C40.1069 52.3312 39.4659 52.4215 38.8424 52.3155C38.2189 52.2096 37.6437 51.9127 37.1962 51.4658C37.4475 51.7138 37.7664 51.8821 38.113 51.9497C38.4596 52.0173 38.8184 51.981 39.1444 51.8456C39.4705 51.7101 39.7493 51.4814 39.946 51.1881C40.1427 50.8949 40.2484 50.5501 40.25 50.197V5.80302C40.2503 5.44827 40.1453 5.10142 39.9483 4.8064C39.7513 4.51138 39.4711 4.28147 39.1434 4.14579C38.8156 4.01011 38.4549 3.97476 38.107 4.04423C37.7592 4.1137 37.4397 4.28486 37.1892 4.53602C37.6364 4.08861 38.2115 3.79121 38.8351 3.68493C39.4587 3.57865 40.0998 3.66875 40.67 3.94277L50.7587 8.79377C51.2793 9.04227 51.719 9.4329 52.0271 9.92059C52.3352 10.4083 52.4991 10.9732 52.5 11.55V44.45C52.5001 45.0264 52.3374 45.5911 52.0305 46.0791C51.7237 46.5671 51.2853 46.9584 50.7657 47.208L40.677 52.0573Z" fill="#1F9CF0"/>
</svg>
