<svg width="56" height="56" viewBox="0 0 56 56" fill="none" xmlns="http://www.w3.org/2000/svg">
<g clip-path="url(#clip0_6_67)">
<path fill-rule="evenodd" clip-rule="evenodd" d="M11.6314 4.66675C8.43607 4.66675 6.07173 7.46343 6.17757 10.4964C6.27912 13.4103 6.14719 17.1842 5.19708 20.2618C4.24415 23.3483 2.63247 25.3037 0 25.5547V28.3888C2.63247 28.6399 4.24415 30.5952 5.19708 33.682C6.14719 36.7594 6.27912 40.5333 6.17757 43.4472C6.07173 46.4798 8.43607 49.2768 11.6319 49.2768H44.3728C47.5683 49.2768 49.9322 46.4803 49.8262 43.4472C49.7247 40.5333 49.8566 36.7594 50.8067 33.682C51.7601 30.5952 53.3675 28.6399 56 28.3888V25.5547C53.3675 25.3037 51.7601 23.3483 50.8067 20.2618C49.8566 17.1846 49.7247 13.4103 49.8262 10.4964C49.9322 7.4639 47.5683 4.66675 44.3728 4.66675H11.6314ZM37.9661 32.127C37.9661 36.3035 34.8509 38.8363 29.6814 38.8363H20.8813C20.6296 38.8363 20.3882 38.7362 20.2102 38.5582C20.0322 38.3801 19.9322 38.1389 19.9322 37.8871V16.0566C19.9322 15.8048 20.0322 15.5634 20.2102 15.3854C20.3882 15.2074 20.6296 15.1074 20.8813 15.1074H29.6312C33.9416 15.1074 36.7705 17.4423 36.7705 21.0273C36.7705 23.5434 34.8677 25.7962 32.4429 26.1906V26.3222C35.7436 26.6843 37.9661 28.9698 37.9661 32.127ZM28.7219 18.1162H23.7041V25.2036H27.9302C31.1971 25.2036 32.9987 23.888 32.9987 21.5365C32.9987 19.3331 31.4496 18.1162 28.7219 18.1162ZM23.7041 28.0159V35.8265H28.9065C32.3078 35.8265 34.1096 34.4615 34.1096 31.8965C34.1096 29.331 32.2574 28.0155 28.6876 28.0155L23.7041 28.0159Z" fill="#7219EE"/>
</g>
<defs>
<clipPath id="clip0_6_67">
<rect width="56" height="56" fill="white"/>
</clipPath>
</defs>
</svg>
