<svg width="56" height="56" viewBox="0 0 56 56" fill="none" xmlns="http://www.w3.org/2000/svg">
<path d="M4.52438 30.4731C3.15854 29.1072 3.15854 26.8928 4.52438 25.5269L25.5269 4.52438C26.8928 3.15854 29.1072 3.15854 30.4731 4.52438L51.4756 25.5269C52.8414 26.8928 52.8414 29.1072 51.4756 30.4731L30.4731 51.4756C29.1072 52.8414 26.8928 52.8414 25.5269 51.4756L4.52438 30.4731Z" fill="#EE513B"/>
<path d="M21.2606 8.85767L19.1338 10.9845L24.6269 16.4776C24.4046 16.9543 24.2805 17.486 24.2805 18.0467C24.2805 19.6385 25.2807 20.9967 26.6868 21.5271V34.9647C25.2807 35.4951 24.2805 36.8533 24.2805 38.4451C24.2805 40.4989 25.9455 42.1638 27.9993 42.1638C30.0531 42.1638 31.718 40.4989 31.718 38.4451C31.718 37.002 30.8961 35.7508 29.6947 35.1344V21.5455L34.9456 26.7964C34.7342 27.2634 34.6166 27.782 34.6166 28.328C34.6166 30.3818 36.2815 32.0467 38.3353 32.0467C40.3891 32.0467 42.0541 30.3818 42.0541 28.328C42.0541 26.2742 40.3891 24.6092 38.3353 24.6092C37.9361 24.6092 37.5518 24.672 37.1913 24.7884L31.552 19.149C31.6599 18.8008 31.718 18.4305 31.718 18.0467C31.718 15.9929 30.0531 14.3279 27.9993 14.3279C27.6155 14.3279 27.2454 14.3861 26.897 14.494L21.2606 8.85767Z" fill="white"/>
</svg>
