<svg width="56" height="56" viewBox="0 0 56 56" fill="none" xmlns="http://www.w3.org/2000/svg">
<g clip-path="url(#clip0_5_17)">
<path d="M0 0H56V56H0V0Z" fill="#F7DF1E"/>
<path d="M14.7242 46.7977L19.0097 44.2042C19.8365 45.67 20.5886 46.9103 22.3926 46.9103C24.1218 46.9103 25.212 46.2339 25.212 43.6027V25.7094H30.4746V43.6771C30.4746 49.1278 27.2796 51.6088 22.6182 51.6088C18.4083 51.6088 15.9646 49.4284 14.7241 46.7972" fill="black"/>
<path d="M33.3335 46.2338L37.6185 43.7528C38.7465 45.5949 40.2125 46.9481 42.8061 46.9481C44.9867 46.9481 46.3771 45.8578 46.3771 44.3542C46.3771 42.5498 44.9488 41.9107 42.5429 40.8586L41.2276 40.2943C37.4307 38.6782 34.9121 36.6483 34.9121 32.3629C34.9121 28.4159 37.9193 25.4085 42.6183 25.4085C45.9639 25.4085 48.3697 26.5739 50.0987 29.6188L46.0012 32.25C45.099 30.6338 44.1219 29.9948 42.6184 29.9948C41.0771 29.9948 40.0997 30.9722 40.0997 32.25C40.0997 33.8289 41.0771 34.4681 43.3323 35.4455L44.6479 36.0093C49.1212 37.9266 51.6399 39.881 51.6399 44.279C51.6399 49.0157 47.9185 51.6092 42.919 51.6092C38.0323 51.6092 34.8745 49.2787 33.3335 46.2338Z" fill="black"/>
</g>
<defs>
<clipPath id="clip0_5_17">
<rect width="56" height="56" fill="white"/>
</clipPath>
</defs>
</svg>
