<svg width="54" height="52" viewBox="0 0 54 52" fill="none" xmlns="http://www.w3.org/2000/svg">
<path d="M30.6435 2.76C29.5795 4.335 28.9443 6.2775 28.9443 8.367C28.9443 9.8685 29.2715 11.2948 29.8595 12.5758L29.8332 12.5128C31.3732 15.9393 34.1732 18.5695 37.6277 19.8523L37.7223 19.8838C37.864 19.938 38.0022 19.9835 38.151 20.036L38.3435 20.0955C38.5448 20.1603 38.7478 20.2338 38.956 20.2793C39.8783 20.5663 40.937 20.7308 42.0342 20.7308C46.3777 20.7308 50.1175 18.1478 51.7992 14.4325L51.8273 14.3643C50.0913 16.5448 47.4348 17.9307 44.4563 17.9307C43.2225 17.9307 42.0447 17.6928 40.965 17.2605L41.028 17.2833C40.5695 17.1678 40.1932 17.0488 39.8275 16.9088L39.901 16.9333C39.3462 16.739 38.9 16.5518 38.466 16.3418L38.5483 16.3785C37.6435 15.9375 36.8682 15.4563 36.1472 14.9085L36.1822 14.9348C33.111 12.8347 31.123 9.3505 31.123 5.40075C31.123 3.70675 31.4887 2.09675 32.1467 0.647751L32.117 0.719501L30.6435 2.76ZM18.5143 6.9705C16.9235 9.42575 15.9785 12.427 15.9785 15.6488C15.9785 18.4873 16.7118 21.1543 17.9998 23.4713L17.9578 23.389C18.4443 24.348 18.936 25.1582 19.482 25.9282L19.44 25.867C19.9528 26.6842 20.5268 27.393 21.1725 28.0265L21.1742 28.0283C21.4087 28.2943 21.6625 28.5532 21.9267 28.8157L22.1228 29.0118C22.3713 29.2515 22.6302 29.486 22.8875 29.7223L22.9225 29.7502C23.2177 30.0081 23.5193 30.2572 23.8273 30.4975C23.9025 30.5482 23.9655 30.606 24.0373 30.6567C24.3435 30.893 24.6533 31.1205 24.9735 31.348L25.0068 31.3672C25.1415 31.4652 25.2867 31.5545 25.439 31.6508C25.5002 31.6893 25.5703 31.7418 25.635 31.782C25.866 31.9308 26.0935 32.0707 26.3297 32.2125C26.3665 32.2282 26.3998 32.2475 26.4348 32.2633C26.6308 32.384 26.846 32.4995 27.0507 32.6062C27.1225 32.65 27.1925 32.6832 27.2695 32.7235C27.413 32.7952 27.5582 32.8722 27.7 32.9457L27.77 32.9755C28.0658 33.1225 28.3668 33.2572 28.6625 33.3902C28.736 33.42 28.8008 33.4445 28.8638 33.476C29.107 33.581 29.3538 33.6808 29.5988 33.7753C29.7073 33.812 29.8105 33.8557 29.9138 33.889C30.136 33.9712 30.3723 34.0482 30.591 34.1252L30.8972 34.2232C31.1615 34.323 31.4905 34.421 31.8265 34.498L31.879 34.5085C49.2215 37.3802 53.236 24.0225 53.236 24.0225C50.1945 27.9933 45.4502 30.529 40.1145 30.529C38.3487 30.529 36.6477 30.2507 35.0535 29.738L35.1708 29.7713C34.8406 29.6861 34.5133 29.5916 34.189 29.4878C34.084 29.458 33.993 29.4247 33.8915 29.3932C33.664 29.3145 33.4295 29.241 33.209 29.1552L32.894 29.038C32.6473 28.94 32.397 28.8472 32.159 28.7422C32.0855 28.709 32.0172 28.688 31.9595 28.6548C31.6532 28.5165 31.3453 28.3818 31.046 28.2348L30.5963 28.0002L30.3355 27.869C30.1395 27.7652 29.9464 27.6561 29.7563 27.5418C29.702 27.5155 29.6583 27.4892 29.6163 27.4612L29.6215 27.4647C29.3905 27.3212 29.1472 27.1813 28.9267 27.0325C28.8532 26.9905 28.785 26.9415 28.715 26.8978L28.26 26.6003C27.945 26.3815 27.637 26.1452 27.3237 25.916C27.2537 25.853 27.1855 25.8005 27.119 25.7428C23.8483 23.2 21.3808 19.7648 20.0718 15.8028L20.0298 15.6558C19.5328 14.1945 19.2475 12.511 19.2475 10.761C19.2475 7.94 19.9912 5.29225 21.295 3.00325L21.2548 3.08025L18.5143 6.9705ZM4.0925 12.595C1.99425 15.906 0.75 19.938 0.75 24.2605C0.75 28.226 1.79825 31.9465 3.63225 35.1595L3.5745 35.051C3.655 35.2243 3.74425 35.387 3.83175 35.5515C3.8825 35.6653 3.9385 35.7703 3.99975 35.8788C4.02775 35.9383 4.068 36.0012 4.103 36.0572C4.16075 36.171 4.22025 36.2795 4.27975 36.3898L4.62275 36.9707C4.6875 37.0775 4.747 37.1825 4.81875 37.2893C4.94125 37.494 5.08125 37.6988 5.20725 37.9035C5.26325 37.991 5.31575 38.0732 5.3805 38.159C5.59283 38.4927 5.81858 38.817 6.05775 39.132C6.2275 39.3665 6.399 39.594 6.58275 39.8215C6.64225 39.9038 6.70875 39.9877 6.77 40.0735L7.25125 40.6615C7.3125 40.728 7.372 40.8085 7.435 40.8785C7.6485 41.1358 7.876 41.3877 8.1035 41.6432L8.114 41.6573C8.3975 42.0125 8.702 42.3275 9.0345 42.611L9.04325 42.6197C9.21825 42.8017 9.39325 42.9802 9.57875 43.1552L9.79925 43.367C10.0425 43.5962 10.2875 43.8237 10.543 44.0425L10.5535 44.0495L10.6777 44.158C10.9 44.3522 11.1257 44.5465 11.355 44.7268L11.628 44.956C11.8135 45.1048 12.0077 45.2465 12.1967 45.3935L12.496 45.6227C12.699 45.775 12.916 45.9273 13.1243 46.076C13.2013 46.1303 13.2765 46.1845 13.3553 46.2352L13.42 46.286L14.0325 46.6902L14.295 46.8653C14.6187 47.07 14.9372 47.2678 15.2575 47.4603C15.3467 47.504 15.4413 47.5565 15.527 47.609C15.7633 47.7437 16.0082 47.882 16.2462 48.0097C16.3775 48.0832 16.5123 48.148 16.6488 48.2145C16.8133 48.3055 16.983 48.3965 17.1597 48.4875C17.207 48.5015 17.2473 48.519 17.2858 48.54L17.2822 48.5382C17.354 48.5715 17.4223 48.6065 17.4923 48.6415C17.7548 48.7727 18.0278 48.8987 18.313 49.0247C18.3813 49.051 18.4355 49.0755 18.4898 49.1035L18.4792 49.0982C18.7942 49.2365 19.111 49.3678 19.4365 49.4955C19.5118 49.5165 19.5888 49.555 19.6658 49.583C19.9615 49.695 20.2642 49.8088 20.5652 49.9155L20.6738 49.9557C21.0098 50.0695 21.3405 50.178 21.68 50.283C21.7588 50.304 21.8392 50.3337 21.9232 50.3547C22.2732 50.4597 22.6092 50.584 22.9592 50.654C45.424 54.7472 51.9533 37.1457 51.9533 37.1457C46.4688 44.2875 36.737 46.1705 27.518 44.0758C27.1767 43.997 26.8355 43.8885 26.4907 43.787C26.0742 43.6633 25.6607 43.5309 25.25 43.3898L25.1153 43.3372C24.8178 43.2375 24.5308 43.1255 24.2403 43.0135C24.1609 42.982 24.081 42.9528 24.0005 42.926C23.6768 42.7948 23.367 42.6617 23.0537 42.5235C22.9855 42.5025 22.9295 42.471 22.8613 42.4447C22.5964 42.3234 22.3327 42.1997 22.0702 42.0737C21.9909 42.0387 21.9139 42.0008 21.8392 41.96C21.6345 41.8638 21.428 41.7517 21.2268 41.6467C21.0891 41.5802 20.9526 41.5102 20.8173 41.4367C20.5688 41.3055 20.3202 41.1637 20.0735 41.0272C20 40.9747 19.9143 40.931 19.8285 40.8837C19.5053 40.6924 19.1851 40.4958 18.8677 40.294C18.7802 40.2403 18.6945 40.1837 18.6105 40.1242C18.3783 39.9807 18.1508 39.8297 17.928 39.671C17.851 39.6203 17.781 39.566 17.7023 39.5118C17.4841 39.3613 17.2688 39.2067 17.0565 39.048C16.9655 38.9745 16.8657 38.9045 16.7677 38.8292C16.5752 38.677 16.381 38.5335 16.1885 38.3742L15.9313 38.166C15.6828 37.9665 15.4383 37.7623 15.198 37.5535C15.1735 37.529 15.1473 37.5062 15.1193 37.487L15.1175 37.4852L14.358 36.794L14.1393 36.5893C13.9608 36.4055 13.777 36.2305 13.5932 36.052L13.3798 35.8332C13.1488 35.6034 12.9236 35.3678 12.7042 35.1263L12.671 35.0912C12.44 34.8375 12.2125 34.5767 11.9868 34.3142C11.9273 34.2495 11.8713 34.1742 11.8118 34.1025L11.3148 33.497C11.0628 33.1727 10.8148 32.8454 10.571 32.5152C7.428 28.5322 5.52925 23.4415 5.52925 17.9062C5.52925 14.3135 6.329 10.9063 7.7605 7.856L7.69925 8.00125L4.0925 12.595Z" fill="#3C68AA"/>
</svg>
