<svg width="56" height="56" viewBox="0 0 56 56" fill="none" xmlns="http://www.w3.org/2000/svg">
<g clip-path="url(#clip0_5_22)">
<path d="M41.5608 52.5087C41.3525 52.619 41.37 52.654 41.5695 52.5525C41.6342 52.5263 41.6885 52.4895 41.7358 52.4458C41.7358 52.409 41.7358 52.409 41.5608 52.5087ZM41.9808 52.2813C41.881 52.3635 41.881 52.3635 42 52.3093C42.063 52.2725 42.119 52.2375 42.119 52.227C42.119 52.1798 42.091 52.1903 41.9808 52.2813ZM42.2538 52.1168C42.154 52.199 42.154 52.199 42.273 52.1448C42.3378 52.108 42.392 52.0695 42.392 52.0608C42.392 52.017 42.364 52.0258 42.2538 52.1168ZM42.5302 51.954C42.4305 52.0363 42.4305 52.0362 42.546 51.9802C42.6108 51.9452 42.665 51.9085 42.665 51.898C42.665 51.8543 42.637 51.863 42.5302 51.954ZM42.903 51.7073C42.7123 51.835 42.6457 51.9173 42.8207 51.8263C42.938 51.7545 43.1375 51.597 43.1025 51.597C43.0272 51.625 42.9642 51.6723 42.9012 51.7073H42.903ZM26.1678 0.019256C26.04 0.028006 25.6567 0.063006 25.3207 0.091006C17.3618 0.812006 9.9155 5.09601 5.19575 11.6953C2.5865 15.3125 0.8925 19.5143 0.25375 23.926C0.028 25.466 0 25.921 0 28.0088C0 30.0948 0.028 30.5428 0.25375 32.0828C1.778 42.602 9.261 51.4325 19.404 54.705C21.2293 55.2878 23.142 55.6903 25.3207 55.937C26.1677 56.028 29.8305 56.028 30.6775 55.937C34.4435 55.517 37.6233 54.5877 40.7698 52.983C41.2528 52.738 41.3437 52.6733 41.279 52.619C39.739 50.5873 38.227 48.5538 36.7133 46.5028L32.2385 40.46L26.6332 32.1563C24.7642 29.3773 22.8882 26.6053 20.9825 23.8543C20.9632 23.8543 20.9387 27.545 20.9282 32.046C20.909 39.9298 20.909 40.25 20.8092 40.432C20.7095 40.6508 20.545 40.8328 20.3262 40.9343C20.153 41.0165 19.9973 41.034 19.1695 41.034H18.2228L17.976 40.88C17.822 40.7803 17.6943 40.642 17.612 40.4793L17.493 40.2325L17.5018 29.2583L17.521 18.284L17.6943 18.0653C17.8045 17.9305 17.941 17.8203 18.095 17.738C18.3243 17.6278 18.4153 17.6103 19.362 17.6103C20.4733 17.6103 20.657 17.654 20.9492 17.9743C23.2172 21.3553 25.4782 24.745 27.7025 28.1453C31.3407 33.6613 36.3073 41.188 38.7485 44.8805L43.1883 51.5988L43.407 51.4535C45.5403 50.0308 47.481 48.3368 49.1558 46.4048C52.6838 42.3658 54.9728 37.3975 55.748 32.095C55.9738 30.555 56.0017 30.0983 56.0017 28.0123C56.0017 25.9245 55.9738 25.4783 55.748 23.9383C54.2238 13.419 46.7408 4.58851 36.5978 1.31426C34.7008 0.714006 32.7495 0.304506 30.7737 0.094506C30.2435 0.040256 26.6245 -0.024494 26.1695 0.022756L26.1678 0.019256ZM37.625 16.954C37.8892 17.08 38.0887 17.318 38.1797 17.591C38.227 17.738 38.2357 20.7813 38.227 27.636L38.2078 37.478L36.477 34.818L34.7358 32.1563V25.011C34.7358 20.3788 34.755 17.7818 34.7795 17.654C34.8618 17.3618 35.0613 17.1168 35.3273 16.9628C35.5443 16.8525 35.6283 16.8438 36.4945 16.8438C37.3048 16.8438 37.443 16.8525 37.625 16.954Z" fill="black"/>
</g>
<defs>
<clipPath id="clip0_5_22">
<rect width="56" height="56" fill="white"/>
</clipPath>
</defs>
</svg>
