<svg width="56" height="56" viewBox="0 0 56 56" fill="none" xmlns="http://www.w3.org/2000/svg">
<path d="M43.8653 24.5C44.2715 24.9501 44.3679 25.7229 44.1555 26.8177C43.9335 27.9579 43.5063 28.7713 42.8733 29.2589C42.2396 29.7465 41.2762 29.9903 39.9823 29.9903H38.03L39.2284 23.8248H41.4272C42.6467 23.8248 43.4591 24.05 43.8653 24.5ZM16.3793 23.8248H14.1806L12.982 29.9903H14.9342C16.2278 29.9903 17.1916 29.7465 17.8252 29.2589C18.4583 28.7713 18.8855 27.9578 19.1074 26.8177C19.3198 25.7228 19.2233 24.9501 18.8172 24.5C18.4111 24.05 17.5988 23.8248 16.3793 23.8248ZM55.9453 28C55.9453 36.1188 43.4336 42.7003 28 42.7003C12.5664 42.7003 0.0546875 36.1188 0.0546875 28C0.0546875 19.8813 12.5664 13.2997 28 13.2997C43.4336 13.2997 55.9453 19.8813 55.9453 28ZM21.7155 29.0157C22.048 28.4198 22.2846 27.7621 22.4246 27.0429C22.7639 25.2965 22.5078 23.9363 21.6564 22.9618C20.8053 21.9872 19.4508 21.5002 17.5946 21.5002H11.4233L8.56023 36.2317H11.7695L12.5305 32.3155H15.2796C16.4922 32.3155 17.49 32.1882 18.2734 31.933C19.0566 31.6783 19.7684 31.2513 20.4093 30.6513C20.9468 30.1569 21.382 29.612 21.7155 29.0157ZM33.0109 32.3155L34.3432 25.4597C34.6143 24.0655 34.4109 23.0566 33.7338 22.4339C33.0561 21.8118 31.8253 21.5002 30.0404 21.5002H27.204L27.9653 17.5835H24.7814L21.9178 32.3154H25.1017L26.7419 23.8755H29.2867C30.1013 23.8755 30.6339 24.0102 30.884 24.2799C31.1341 24.5498 31.1873 25.0555 31.0431 25.7969L29.7765 32.3154H33.0109V32.3155ZM46.7043 22.9619C45.8534 21.9873 44.4989 21.5003 42.6427 21.5003H36.4713L33.6081 36.2318H36.8175L37.5784 32.3156H40.3275C41.5401 32.3156 42.538 32.1883 43.3212 31.9331C44.1045 31.6784 44.8163 31.2514 45.4571 30.6514C45.9953 30.1569 46.4301 29.6121 46.7634 29.0158C47.0963 28.4199 47.3324 27.7622 47.4725 27.043C47.8119 25.2965 47.5558 23.9363 46.7043 22.9619Z" fill="#6B7FB3"/>
</svg>
