<svg width="56" height="56" viewBox="0 0 56 56" fill="none" xmlns="http://www.w3.org/2000/svg">
<path d="M32.6882 27.9578C32.6882 25.4476 30.5894 23.4124 28.0001 23.4124C25.4111 23.4124 23.312 25.4476 23.312 27.9578C23.312 30.4684 25.4111 32.5034 28.0001 32.5034C30.5894 32.5034 32.6882 30.4684 32.6882 27.9578Z" fill="#53C1DE"/>
<path fill-rule="evenodd" clip-rule="evenodd" d="M43.2257 19.519C44.2157 15.6184 45.4601 8.38509 41.0732 5.93278C36.7068 3.49116 31.0247 8.16975 28.0243 10.9781C25.0327 8.19773 19.191 3.53915 14.8079 5.99924C10.4431 8.44905 11.7891 15.5624 12.8011 19.4875C8.72954 20.6087 1.75 23.0237 1.75 27.9578C1.75 32.8779 8.72228 35.5054 12.7697 36.6256C11.754 40.5723 10.4754 47.5841 14.8457 50.0285C19.2453 52.4881 25.0688 47.9404 28.097 45.1013C31.1166 47.9262 36.7441 52.5037 41.1114 50.0524C45.4923 47.5935 44.3513 40.4572 43.3393 36.5094C47.2628 35.3867 54.25 32.8165 54.25 27.9578C54.25 23.0711 47.233 20.6365 43.2257 19.519ZM42.7284 34.4172C42.0639 32.3778 41.167 30.209 40.0699 27.9687C41.1171 25.7812 41.9792 23.6404 42.6251 21.6141C45.5628 22.4399 52.0074 24.3273 52.0074 27.9578C52.0074 31.6225 45.8231 33.5277 42.7284 34.4172ZM39.9875 48.1705C36.729 49.9992 31.8887 45.6218 29.6586 43.5416C31.1381 41.9727 32.6165 40.1488 34.0594 38.1236C36.5976 37.9053 38.9953 37.5483 41.1698 37.061C41.8821 39.8534 43.2604 46.3335 39.9875 48.1705ZM15.9663 48.1444C12.7075 46.3225 14.197 40.0655 14.9442 37.1583C17.0946 37.6196 19.4751 37.9514 22.0192 38.1514C23.4715 40.1331 24.9928 41.9547 26.5258 43.55C24.6318 45.3264 19.2404 49.9747 15.9663 48.1444ZM3.99261 27.9578C3.99261 24.2795 10.3986 22.4058 13.4033 21.582C14.0604 23.6539 14.9222 25.8202 15.9622 28.0108C14.9087 30.234 14.0346 32.4347 13.3715 34.531C10.5065 33.7358 3.99261 31.6384 3.99261 27.9578ZM15.9315 7.88119C19.2036 6.04478 24.2807 10.5172 26.4528 12.5302C24.9277 14.1182 23.4204 15.926 21.9805 17.8964C19.5114 18.1183 17.1478 18.4746 14.9749 18.952C14.1597 15.7862 12.6629 9.71563 15.9315 7.88119ZM35.6638 20.2599C37.3389 20.4648 38.9438 20.7375 40.4507 21.071C39.9984 22.477 39.4345 23.9472 38.7704 25.4543C37.8077 23.6833 36.7743 21.9478 35.6638 20.2599ZM28.025 14.0842C29.0594 15.1707 30.0955 16.384 31.1147 17.7004C29.0474 17.6055 26.9768 17.6052 24.9095 17.699C25.9296 16.3948 26.9745 15.1833 28.025 14.0842ZM17.2489 25.4527C16.5958 23.9508 16.037 22.4742 15.5806 21.0481C17.0786 20.7231 18.676 20.4575 20.3403 20.2559C19.2266 21.9401 18.1949 23.6749 17.2489 25.4527ZM20.388 35.815C18.6688 35.6289 17.0472 35.3768 15.5497 35.0607C16.0133 33.6096 16.5844 32.1011 17.2514 30.5669C18.2105 32.3633 19.2579 34.1148 20.388 35.815ZM28.0872 41.9851C27.0242 40.873 25.9639 39.6429 24.9284 38.3199C27.0074 38.399 29.0904 38.3992 31.1693 38.3092C30.1469 39.6564 29.1146 40.8882 28.0872 41.9851ZM38.7917 30.4888C39.4935 32.0397 40.085 33.54 40.5549 34.9666C39.0325 35.3034 37.3891 35.5747 35.6575 35.7761C36.7762 34.0562 37.8261 32.2938 38.7917 30.4888ZM32.8078 36.0397C29.6277 36.26 26.4278 36.2575 23.2467 36.0577C21.4391 33.4976 19.8299 30.8052 18.441 28.0101C19.8233 25.2208 21.4207 22.5337 23.2197 19.9776C26.4031 19.7444 29.6062 19.7437 32.7896 19.979C34.5732 22.5349 36.1681 25.215 37.5825 27.9792C36.1849 30.7671 34.5791 33.4596 32.8078 36.0397ZM39.953 7.81655C43.226 9.64694 41.7692 16.1477 41.0541 18.9745C38.8761 18.4872 36.5108 18.1246 34.0345 17.8992C32.5918 15.9076 31.0971 14.0966 29.5967 12.5291C31.7966 10.4727 36.7117 6.00406 39.953 7.81655Z" fill="#53C1DE"/>
</svg>
