<svg width="56" height="56" viewBox="0 0 56 56" fill="none" xmlns="http://www.w3.org/2000/svg">
<path d="M46.3754 26.2493C48.7914 26.2493 50.75 24.2907 50.75 21.8747C50.75 19.4586 48.7912 17.5 46.3752 17.5C43.9589 17.5 42 19.4588 42 21.875V26.2493H46.3754ZM34.125 26.2493C36.5412 26.2493 38.5 24.2905 38.5 21.8743V9.625C38.5 7.20876 36.5412 5.25 34.125 5.25C31.7088 5.25 29.75 7.20876 29.75 9.625V21.8743C29.75 24.2905 31.7088 26.2493 34.125 26.2493Z" fill="#2EB67D"/>
<path d="M9.62463 29.7507C7.20858 29.7507 5.25 31.7093 5.25 34.1254C5.25 36.5414 7.20877 38.5 9.62481 38.5C12.041 38.5 14 36.5412 14 34.125V29.7507H9.62463ZM21.875 29.7507C19.4588 29.7507 17.5 31.7095 17.5 34.1257V46.375C17.5 48.7912 19.4588 50.75 21.875 50.75C24.2912 50.75 26.25 48.7912 26.25 46.375V34.1257C26.25 31.7095 24.2912 29.7507 21.875 29.7507Z" fill="#E01E5A"/>
<path d="M29.7507 46.3754C29.7507 48.7914 31.7093 50.75 34.1254 50.75C36.5414 50.75 38.5 48.7912 38.5 46.3752C38.5 43.9589 36.5413 42 34.125 42H29.7507V46.3754ZM29.7507 34.125C29.7507 36.5412 31.7095 38.5 34.1257 38.5H46.375C48.7913 38.5 50.75 36.5412 50.75 34.125C50.75 31.7088 48.7913 29.75 46.375 29.75H34.1257C31.7095 29.75 29.7507 31.7088 29.7507 34.125Z" fill="#ECB22E"/>
<path d="M26.2493 9.62463C26.2493 7.20858 24.2907 5.25 21.8747 5.25C19.4586 5.25 17.5 7.20877 17.5 9.62481C17.5 12.0411 19.4588 14 21.875 14H26.2493V9.62463ZM26.2493 21.875C26.2493 19.4588 24.2905 17.5 21.8743 17.5H9.625C7.20876 17.5 5.25 19.4588 5.25 21.875C5.25 24.2912 7.20876 26.25 9.625 26.25H21.8743C24.2905 26.25 26.2493 24.2912 26.2493 21.875Z" fill="#36C5F0"/>
</svg>
