<svg width="56" height="56" viewBox="0 0 56 56" fill="none" xmlns="http://www.w3.org/2000/svg">
<g clip-path="url(#clip0_6_58)">
<path d="M50.1674 22.1775C50.1674 9.92921 40.2382 -8.15187e-06 27.9898 -8.15187e-06C17.0733 -0.0154031 7.77024 7.91844 6.06197 18.7005C4.35371 29.4826 10.7487 39.9035 21.1354 43.2633V54.3755C21.1354 55.2368 21.8337 55.9351 22.695 55.9351H33.2223C34.0837 55.9351 34.7819 55.2368 34.7819 54.3755V43.2711C43.9428 40.3213 50.157 31.8016 50.1674 22.1775ZM27.9898 29.6714C23.8489 29.6714 20.4921 26.3145 20.4921 22.1736C20.4921 18.0327 23.8489 14.6758 27.9898 14.6758C32.1308 14.6758 35.4876 18.0327 35.4876 22.1736C35.4876 26.3145 32.1308 29.6714 27.9898 29.6714Z" fill="#2684FF"/>
<path d="M27.9897 -2.52074e-05V14.6836C32.1307 14.6836 35.4875 18.0405 35.4875 22.1814C35.4875 26.3223 32.1307 29.6792 27.9897 29.6792C29.8077 29.6792 31.5511 30.4014 32.8366 31.6868C34.122 32.9723 34.8442 34.7157 34.8442 36.5337V43.2789C45.2347 39.9185 51.6325 29.4942 49.9243 18.7083C48.216 7.92235 38.9101 -0.0147914 27.9897 -2.52074e-05Z" fill="url(#paint0_linear_6_58)"/>
</g>
<defs>
<linearGradient id="paint0_linear_6_58" x1="1136.87" y1="3926.3" x2="1136.87" y2="1570.52" gradientUnits="userSpaceOnUse">
<stop offset="0.18" stop-color="#0052CC"/>
<stop offset="1" stop-color="#2684FF"/>
</linearGradient>
<clipPath id="clip0_6_58">
<rect width="56" height="56" fill="white"/>
</clipPath>
</defs>
</svg>
