<svg width="56" height="56" viewBox="0 0 56 56" fill="none" xmlns="http://www.w3.org/2000/svg">
<path d="M15.75 23.975C17.3833 17.4417 21.4667 14.175 28 14.175C37.8 14.175 39.025 21.525 43.925 22.75C47.1917 23.5667 50.05 22.3417 52.5 19.075C50.8667 25.6083 46.7833 28.875 40.25 28.875C30.45 28.875 29.225 21.525 24.325 20.3C21.0583 19.4833 18.2 20.7083 15.75 23.975ZM3.5 38.675C5.13333 32.1417 9.21667 28.875 15.75 28.875C25.55 28.875 26.775 36.225 31.675 37.45C34.9417 38.2667 37.8 37.0417 40.25 33.775C38.6167 40.3083 34.5333 43.575 28 43.575C18.2 43.575 16.975 36.225 12.075 35C8.80833 34.1833 5.95 35.4083 3.5 38.675Z" fill="#44A8B3"/>
</svg>
